<svg width="50" height="50" viewBox="0 0 50 50" fill="none" xmlns="http://www.w3.org/2000/svg">
<path fill-rule="evenodd" clip-rule="evenodd" d="M11.2574 18.2526C13.2771 23.1818 12.6602 28.2938 9.87971 29.6737C7.09915 31.0536 3.20789 28.1776 1.1884 23.2493C-0.831264 18.321 -0.214448 13.2085 2.56611 11.8288C5.34667 10.4496 9.23775 13.3257 11.2574 18.2526Z" fill="white"/>
<path fill-rule="evenodd" clip-rule="evenodd" d="M38.7426 18.2526C36.7228 23.1818 37.3397 28.2938 40.1205 29.6737C42.901 31.0536 46.7919 28.1776 48.8119 23.2493C50.8313 18.321 50.2143 13.2085 47.4339 11.8288C44.6535 10.4496 40.7622 13.3257 38.7426 18.2526Z" fill="white"/>
<path fill-rule="evenodd" clip-rule="evenodd" d="M23.0761 8.37331C24.1114 13.6572 22.5333 18.5135 19.5516 19.2211C16.5701 19.9276 13.3137 16.217 12.2786 10.9336C11.2435 5.64981 12.8215 0.793264 15.8032 0.0864192C18.7848 -0.620719 22.041 3.08941 23.0761 8.37331Z" fill="white"/>
<path fill-rule="evenodd" clip-rule="evenodd" d="M26.8497 8.37778C25.8154 13.6616 27.3923 18.5184 30.3738 19.225C33.3556 19.9325 36.6118 16.2219 37.6468 10.9382C38.682 5.65428 37.1042 0.79774 34.1223 0.0908953C31.1406 -0.616047 27.8844 3.09388 26.8497 8.37778Z" fill="white"/>
<path fill-rule="evenodd" clip-rule="evenodd" d="M19.3442 26.0364C18.6165 27.4192 15.2443 31.9966 12.9118 33.5583C10.5796 35.1199 7.6895 37.4067 8.1745 42.6575C8.65923 47.9092 13.5552 50.1569 16.7783 49.9575C20.0015 49.7591 26.0784 49.1063 30.4171 49.7679C34.7555 50.4295 40.2313 49.9282 41.5136 44.9003C42.7959 39.8723 39.928 36.6689 37.6901 34.8512C35.4523 33.0345 31.7152 27.6 30.5638 25.1051C29.4126 22.6111 23.5529 18.0435 19.3442 26.0364Z" fill="white"/>
</svg>
